<svg xmlns="http://www.w3.org/2000/svg" xmlns:xlink="http://www.w3.org/1999/xlink" width="1040" height="711.3"><rect width="1040" height="711.3" rx="5" ry="5" class="a"/><svg y="0%" x="0%"><circle cx="20" cy="20" r="6" fill="#ff5f58"/><circle cx="40" cy="20" r="6" fill="#ffbd2e"/><circle cx="60" cy="20" r="6" fill="#18c132"/></svg><svg height="651.3" viewBox="0 0 100 65.13" width="1000" x="15" xmlns="http://www.w3.org/2000/svg" xmlns:xlink="http://www.w3.org/1999/xlink" y="50"><style>@keyframes h{0%{transform:translateX(0)}to{transform:translateX(-100px)}}.a{fill:#282d35}.j{fill:#b9c0cb;white-space:pre}</style><g font-family="Monaco,Consolas,Menlo,'Bitstream Vera Sans Mono','Powerline Symbols',monospace" font-size="1.67"><defs><symbol id="a"><path fill="transparent" d="M0 0h100v31H0z"/></symbol><symbol id="b"><path fill="#6f7683" d="M0 0h1.102v2.171H0z"/></symbol></defs><path class="a" d="M0 0h100v65.13H0z"/><g style="animation-duration:.415803s;animation-iteration-count:infinite;animation-name:h;animation-timing-function:steps(1,end)"><svg width="200"><svg><use xlink:href="#a"/><use xlink:href="#b" x="-.004"/></svg><svg x="100"><use xlink:href="#a"/><use xlink:href="#b" x="-.004" y="19.514"/><text y="1.67" class="j">Traceback</text><text x="10.02" y="1.67" class="j">(most</text><text x="16.032" y="1.67" class="j">recent</text><text x="23.046" y="1.67" class="j">call</text><text x="28.056" y="1.67" class="j">last):</text><text x="2.004" y="3.841" class="j">File</text><text x="7.014" y="3.841" class="j">&quot;/opt/hostedtoolcache/Python/3.12.13/x64/bin/aicu&quot;,</text><text x="59.118" y="3.841" class="j">line</text><text x="64.128" y="3.841" class="j">3,</text><text x="67.134" y="3.841" class="j">in</text><text x="70.14" y="3.841" class="j">&lt;module&gt;</text><text x="4.008" y="6.012" class="j">from</text><text x="9.018" y="6.012" class="j">main</text><text x="14.028" y="6.012" class="j">import</text><text x="21.042" y="6.012" class="j">main</text><text x="2.004" y="8.183" class="j">File</text><text x="7.014" y="8.183" class="j">&quot;/home/runner/work/aicu/aicu/main.py&quot;,</text><text x="46.092" y="8.183" class="j">line</text><text x="51.102" y="8.183" class="j">11,</text><text x="55.11" y="8.183" class="j">in</text><text x="58.116" y="8.183" class="j">&lt;module&gt;</text><text x="4.008" y="10.354" class="j">from</text><text x="9.018" y="10.354" class="j">indirect_injection</text><text x="28.056" y="10.354" class="j">import</text><text x="35.07" y="10.354" class="j">run_all_indirect_file_tests,</text><text x="64.128" y="10.354" class="j">serialize_indirect_result</text><text x="2.004" y="12.525" class="j">File</text><text x="7.014" y="12.525" class="j">&quot;/home/runner/work/aicu/aicu/indirect_injection.py&quot;,</text><text x="60.12" y="12.525" class="j">line</text><text x="65.13" y="12.525" class="j">8,</text><text x="68.136" y="12.525" class="j">in</text><text x="71.142" y="12.525" class="j">&lt;module&gt;</text><text x="4.008" y="14.696" class="j">from</text><text x="9.018" y="14.696" class="j">multipart</text><text x="19.038" y="14.696" class="j">import</text><text x="26.052" y="14.696" class="j">replace_uploaded_file</text><text y="16.867" class="j">ImportError:</text><text x="13.026" y="16.867" class="j">cannot</text><text x="20.04" y="16.867" class="j">import</text><text x="27.054" y="16.867" class="j">name</text><text x="32.064" y="16.867" class="j">&apos;replace_uploaded_file&apos;</text><text x="56.112" y="16.867" class="j">from</text><text x="61.122" y="16.867" class="j">&apos;multipart&apos;</text><text x="73.146" y="16.867" class="j">(/opt/hostedtoolcache/Pytho</text><text y="19.038" class="j">n/3.12.13/x64/lib/python3.12/site-packages/multipart/__init__.py)</text></svg></svg></g></g></svg></svg>